#Comment line ignore any data following # character 
#Hierarchical Translation and Rotation (.htr) file 
[Header]	
#Header keywords are followed by a single value 
FileType HTR		#Single word string
DataType HTRS		#Translation followed by rotation and scale data
FileVersion 1		#integer
NumSegments 64		#integer
NumFrames 3		#integer
DataFrameRate 30		#integer, data frame rate in this file
EulerRotationOrder ZYX
CalibrationUnits mm
RotationUnits Degrees
GlobalAxisofGravity Y
BoneLengthAxis Y
ScaleFactor 1.00
[SegmentNames&Hierarchy]
#CHILD	PARENT
Pinger_Root GLOBAL
Pelvis Pinger_Root
L_Hip Pelvis
R_Hip Pelvis
Rear_Leg01 Pelvis
Spine1 Pelvis
L_Leg01 L_Hip
L_Leg02 L_Leg01
L_Leg03 L_Leg02
L_Foot L_Leg03
L_Toe1_01 L_Foot
L_Toe2_01 L_Foot
L_Toe3_01 L_Foot
planeAlignerLeft L_Foot
L_Toe1_02 L_Toe1_01
L_Toe1_03 L_Toe1_02
L_Toe2_02 L_Toe2_01
L_Toe2_03 L_Toe2_02
L_Toe3_02 L_Toe3_01
L_Toe3_03 L_Toe3_02
planeLockWeightLeft planeAlignerLeft
R_Leg01 R_Hip
R_Leg02 R_Leg01
R_Leg03 R_Leg02
R_Foot R_Leg03
planeAlignerRight R_Foot
R_Toe1_01 R_Foot
R_Toe2_01 R_Foot
R_Toe3_01 R_Foot
planeLockWeightRight planeAlignerRight
R_Toe1_02 R_Toe1_01
R_Toe1_03 R_Toe1_02
R_Toe2_02 R_Toe2_01
R_Toe2_03 R_Toe2_02
R_Toe3_02 R_Toe3_01
R_Toe3_03 R_Toe3_02
Rear_Leg02 Rear_Leg01
Rear_Leg03 Rear_Leg02
Rear_Leg04 Rear_Leg03
Rear_Foot Rear_Leg04
planeAlignerCenter Rear_Foot
Rear_Toe1_01 Rear_Foot
Rear_Toe2_01 Rear_Foot
Rear_Toe3_01 Rear_Foot
planeLockWeightCenter planeAlignerCenter
Rear_Toe1_02 Rear_Toe1_01
Rear_Toe1_03 Rear_Toe1_02
Rear_Toe2_02 Rear_Toe2_01
Rear_Toe2_03 Rear_Toe2_02
Rear_Toe3_02 Rear_Toe3_01
Rear_Toe3_03 Rear_Toe3_02
Back_Bone Spine1
Head Spine1
Motor_Bone Back_Bone
Ping_Mechanism Back_Bone
BN_LookIK Head
bottomMouth Head
L_Mouth01 Head
L_mouthFront Head
mouthGun Head
R_Mouth01 Head
R_mouthFront Head
TopMouth Head
weapon_bone Head
[BasePosition]
#SegmentName Tx, Ty, Tz, Rx, Ry, Rz, BoneLength
Pinger_Root 0.000000 0.000000 0.000000 -90.000000 0.000000 0.000000 10.000000 
Pelvis 0.000000 0.000000 0.000000 0.000000 0.000000 0.000000 10.000000 
L_Hip 0.000000 0.000000 0.000000 0.000000 0.000000 0.000000 10.000000 
R_Hip 0.000000 0.000000 0.000000 0.000000 0.000000 0.000000 10.000000 
Rear_Leg01 0.000000 0.000000 0.000000 0.000000 0.000000 0.000000 10.000000 
Spine1 0.000000 0.000000 0.000000 0.000000 0.000000 0.000000 10.000000 
L_Leg01 0.000000 0.000000 0.000000 0.000000 0.000000 0.000000 10.000000 
L_Leg02 0.000000 0.000000 0.000000 0.000000 0.000000 0.000000 10.000000 
L_Leg03 0.000000 0.000000 0.000000 0.000000 0.000000 0.000000 10.000000 
L_Foot 0.000000 0.000000 0.000000 0.000000 0.000000 0.000000 10.000000 
L_Toe1_01 0.000000 0.000000 0.000000 0.000000 0.000000 0.000000 10.000000 
L_Toe2_01 0.000000 0.000000 0.000000 0.000000 0.000000 0.000000 10.000000 
L_Toe3_01 0.000000 0.000000 0.000000 0.000000 0.000000 0.000000 10.000000 
planeAlignerLeft 0.000000 0.000000 0.000000 0.000000 0.000000 0.000000 10.000000 
L_Toe1_02 0.000000 0.000000 0.000000 0.000000 0.000000 0.000000 10.000000 
L_Toe1_03 0.000000 0.000000 0.000000 0.000000 0.000000 0.000000 10.000000 
L_Toe2_02 0.000000 0.000000 0.000000 0.000000 0.000000 0.000000 10.000000 
L_Toe2_03 0.000000 0.000000 0.000000 0.000000 0.000000 0.000000 10.000000 
L_Toe3_02 0.000000 0.000000 0.000000 0.000000 0.000000 0.000000 10.000000 
L_Toe3_03 0.000000 0.000000 0.000000 0.000000 0.000000 0.000000 10.000000 
planeLockWeightLeft 0.000000 0.000000 0.000000 0.000000 0.000000 0.000000 10.000000 
R_Leg01 0.000000 0.000000 0.000000 0.000000 0.000000 0.000000 10.000000 
R_Leg02 0.000000 0.000000 0.000000 0.000000 0.000000 0.000000 10.000000 
R_Leg03 0.000000 0.000000 0.000000 0.000000 0.000000 0.000000 10.000000 
R_Foot 0.000000 0.000000 0.000000 0.000000 0.000000 0.000000 10.000000 
planeAlignerRight 0.000000 0.000000 0.000000 0.000000 0.000000 0.000000 10.000000 
R_Toe1_01 0.000000 0.000000 0.000000 0.000000 0.000000 0.000000 10.000000 
R_Toe2_01 0.000000 0.000000 0.000000 0.000000 0.000000 0.000000 10.000000 
R_Toe3_01 0.000000 0.000000 0.000000 0.000000 0.000000 0.000000 10.000000 
planeLockWeightRight 0.000000 0.000000 0.000000 0.000000 0.000000 0.000000 10.000000 
R_Toe1_02 0.000000 0.000000 0.000000 0.000000 0.000000 0.000000 10.000000 
R_Toe1_03 0.000000 0.000000 0.000000 0.000000 0.000000 0.000000 10.000000 
R_Toe2_02 0.000000 0.000000 0.000000 0.000000 0.000000 0.000000 10.000000 
R_Toe2_03 0.000000 0.000000 0.000000 0.000000 0.000000 0.000000 10.000000 
R_Toe3_02 0.000000 0.000000 0.000000 0.000000 0.000000 0.000000 10.000000 
R_Toe3_03 0.000000 0.000000 0.000000 0.000000 0.000000 0.000000 10.000000 
Rear_Leg02 0.000000 0.000000 0.000000 0.000000 0.000000 0.000000 10.000000 
Rear_Leg03 0.000000 0.000000 0.000000 0.000000 0.000000 0.000000 10.000000 
Rear_Leg04 0.000000 0.000000 0.000000 0.000000 0.000000 0.000000 10.000000 
Rear_Foot 0.000000 0.000000 0.000000 0.000000 0.000000 0.000000 10.000000 
planeAlignerCenter 0.000000 0.000000 0.000000 0.000000 0.000000 0.000000 10.000000 
Rear_Toe1_01 0.000000 0.000000 0.000000 0.000000 0.000000 0.000000 10.000000 
Rear_Toe2_01 0.000000 0.000000 0.000000 0.000000 0.000000 0.000000 10.000000 
Rear_Toe3_01 0.000000 0.000000 0.000000 0.000000 0.000000 0.000000 10.000000 
planeLockWeightCenter 0.000000 0.000000 0.000000 0.000000 0.000000 0.000000 10.000000 
Rear_Toe1_02 0.000000 0.000000 0.000000 0.000000 0.000000 0.000000 10.000000 
Rear_Toe1_03 0.000000 0.000000 0.000000 0.000000 0.000000 0.000000 10.000000 
Rear_Toe2_02 0.000000 0.000000 0.000000 0.000000 0.000000 0.000000 10.000000 
Rear_Toe2_03 0.000000 0.000000 0.000000 0.000000 0.000000 0.000000 10.000000 
Rear_Toe3_02 0.000000 0.000000 0.000000 0.000000 0.000000 0.000000 10.000000 
Rear_Toe3_03 0.000000 0.000000 0.000000 0.000000 0.000000 0.000000 10.000000 
Back_Bone 0.000000 0.000000 0.000000 0.000000 0.000000 0.000000 10.000000 
Head 0.000000 0.000000 0.000000 0.000000 0.000000 0.000000 10.000000 
Motor_Bone 0.000000 0.000000 0.000000 0.000000 0.000000 0.000000 10.000000 
Ping_Mechanism 0.000000 0.000000 0.000000 0.000000 0.000000 0.000000 10.000000 
BN_LookIK 0.000000 0.000000 0.000000 0.000000 0.000000 0.000000 10.000000 
bottomMouth 0.000000 0.000000 0.000000 0.000000 0.000000 0.000000 10.000000 
L_Mouth01 0.000000 0.000000 0.000000 0.000000 0.000000 0.000000 10.000000 
L_mouthFront 0.000000 0.000000 0.000000 0.000000 0.000000 0.000000 10.000000 
mouthGun 0.000000 0.000000 0.000000 0.000000 0.000000 0.000000 10.000000 
R_Mouth01 0.000000 0.000000 0.000000 0.000000 0.000000 0.000000 10.000000 
R_mouthFront 0.000000 0.000000 0.000000 0.000000 0.000000 0.000000 10.000000 
TopMouth 0.000000 0.000000 0.000000 0.000000 0.000000 0.000000 10.000000 
weapon_bone 0.000000 0.000000 0.000000 0.000000 0.000000 0.000000 10.000000 
#Beginning of Data. Separated by tabs
#Fr	Tx	Ty	Tz	Rx	Ry	Rz	SF
[Pinger_Root]
24 0.000000 0.000000 0.000000 -0.000075 -0.000000 -0.000020 0.000000
25 0.000000 0.000000 0.000000 -0.000075 -0.000000 -0.000020 0.000000
26 0.000000 0.000000 0.000000 -0.000075 -0.000000 -0.000020 0.000000
[Pelvis]
24 -261.476624 2012.681030 3456.203369 -15.803864 -84.347054 2.285071 4008.066406
25 -261.193573 2009.944946 3451.078613 -14.882496 -84.006195 1.359291 4002.254883
26 -260.263855 2007.748901 3457.640381 -14.060636 -83.663795 0.533048 4006.752930
[L_Hip]
24 5.766392 125.831482 872.656799 172.961731 -43.422859 113.649780 881.701050
25 5.766392 125.831482 872.656799 172.961731 -43.422859 113.649780 881.701050
26 5.766392 125.831482 872.656799 172.961731 -43.422859 113.649780 881.701050
[R_Hip]
24 5.765438 125.836372 -872.654907 -96.650436 63.426430 -21.935207 881.699829
25 5.765438 125.836372 -872.654907 -97.288002 63.260544 -22.667555 881.699829
26 5.765438 125.836372 -872.654907 -97.493179 63.203594 -22.909782 881.699829
[Rear_Leg01]
24 -192.298416 -925.602966 -0.001907 179.423279 21.507854 -126.405563 945.367432
25 -192.298416 -925.602966 -0.001907 179.692764 21.702795 -126.336388 945.367432
26 -192.298416 -925.602966 -0.001907 179.962845 21.897425 -126.266106 945.367432
[Spine1]
24 290.604584 5.007505 0.000477 2.208823 -15.419409 40.421921 290.647736
25 290.604584 5.007505 0.000477 1.964757 -15.615339 40.444611 290.647736
26 290.604584 5.007505 0.000477 1.720378 -15.811172 40.468197 290.647736
[L_Leg01]
24 761.932007 -0.002384 -0.069261 48.436714 2.204717 -36.184189 761.932068
25 761.932007 -0.002384 -0.069261 48.286083 0.917294 -35.572922 761.932068
26 761.932007 -0.002384 -0.069261 48.129749 0.212479 -35.495625 761.932068
[L_Leg02]
24 1441.140503 -0.000954 -0.000715 6.752782 2.396104 -125.378395 1441.140503
25 1441.140503 -0.000954 -0.000715 6.703387 2.303552 -126.970100 1441.140503
26 1441.140503 -0.000954 -0.000715 6.593274 2.179475 -127.166405 1441.140503
[L_Leg03]
24 1686.963989 -0.000715 -0.000954 -0.111666 0.069056 141.235764 1686.963989
25 1686.963989 -0.000715 -0.000954 -0.109868 0.067558 140.722488 1686.963989
26 1686.963989 -0.000715 -0.000954 -0.108056 0.066077 140.209213 1686.963989
[L_Foot]
24 3041.570068 -30.715107 11.297464 -20.745092 40.665920 43.670368 3041.746094
25 3041.570068 -30.715107 11.297464 -20.730537 40.542084 44.386532 3041.746094
26 3041.570068 -30.715107 11.297464 -20.672047 40.506008 44.601910 3041.746094
[L_Toe1_01]
24 -188.216690 -224.732346 -21.137953 94.189430 -7.492751 179.913681 293.899567
25 -188.216690 -224.732346 -21.137953 94.189537 -7.494345 179.913406 293.899567
26 -188.216690 -224.732346 -21.137953 94.189644 -7.495937 179.913147 293.899567
[L_Toe2_01]
24 200.746536 -219.926590 148.838394 -98.193222 -36.571735 -34.803730 332.896027
25 200.746536 -219.926590 148.838394 -98.193222 -36.571735 -34.803730 332.896027
26 200.746536 -219.926590 148.838394 -98.193222 -36.571735 -34.803730 332.896027
[L_Toe3_01]
24 188.832520 -219.859131 -191.078659 -96.679802 25.038572 -61.562389 347.140900
25 188.832520 -219.859131 -191.078659 -96.679802 25.038572 -61.562389 347.140900
26 188.832520 -219.859131 -191.078659 -96.679802 25.038572 -61.562389 347.140900
[planeAlignerLeft]
24 0.812531 -811.448792 -0.314951 0.000000 -90.000000 -90.001900 811.449280
25 0.812531 -811.448792 -0.314951 0.000000 -90.000000 -90.001900 811.449280
26 0.812531 -811.448792 -0.314951 0.000000 -90.000000 -90.001900 811.449280
[L_Toe1_02]
24 413.761139 0.000477 0.000000 0.001661 0.068796 0.001661 413.761139
25 413.761139 0.000477 0.000000 0.001661 0.068672 0.001661 413.761139
26 413.761139 0.000477 0.000000 0.001661 0.068548 0.001661 413.761139
[L_Toe1_03]
24 464.317322 0.000358 -0.000089 0.001673 -0.448396 -0.003292 464.317322
25 464.317322 0.000358 -0.000089 0.001673 -0.448396 -0.003292 464.317322
26 464.317322 0.000358 -0.000089 0.001673 -0.448396 -0.003292 464.317322
[L_Toe2_02]
24 342.235809 -0.000477 0.000238 0.004684 -81.209724 0.004684 342.235809
25 342.235809 -0.000477 0.000238 0.004684 -81.210182 0.004684 342.235809
26 342.235809 -0.000477 0.000238 0.004684 -81.210701 0.004684 342.235809
[L_Toe2_03]
24 420.210846 -0.000715 0.000000 179.993240 43.061138 -179.999130 420.210846
25 420.210846 -0.000715 0.000000 179.993240 43.061142 -179.999130 420.210846
26 420.210846 -0.000715 0.000000 179.993240 43.061134 -179.999130 420.210846
[L_Toe3_02]
24 329.270111 0.000954 0.000000 0.004676 -84.586296 0.004676 329.270111
25 329.270111 0.000954 0.000000 0.004675 -84.586227 0.004675 329.270111
26 329.270111 0.000954 0.000000 0.004676 -84.586296 0.004676 329.270111
[L_Toe3_03]
24 439.137451 -0.001907 0.000954 179.993500 35.788990 -179.998657 439.137451
25 439.137451 -0.001907 0.000954 179.993500 35.788990 -179.998657 439.137451
26 439.137451 -0.001907 0.000954 179.993500 35.788990 -179.998657 439.137451
[planeLockWeightLeft]
24 -0.000954 0.000238 -0.000305 -0.011826 -0.004376 0.005620 0.001029
25 -0.000954 0.000238 -0.000305 -0.011826 -0.004376 0.005620 0.001029
26 -0.000954 0.000238 -0.000305 -0.011826 -0.004376 0.005620 0.001029
[R_Leg01]
24 761.455627 -0.001907 -0.000358 109.436539 -7.921843 80.325775 761.455688
25 761.455627 -0.001907 -0.000358 108.646057 -8.543910 79.968575 761.455688
26 761.455627 -0.001907 -0.000358 108.127792 -8.667727 79.887115 761.455688
[R_Leg02]
24 1441.140625 0.000000 -0.000238 -1.946405 -0.595208 -117.370735 1441.140625
25 1441.140625 0.000000 -0.000238 -1.984130 -0.627469 -118.414528 1441.140625
26 1441.140625 0.000000 -0.000238 -1.984382 -0.626672 -118.368492 1441.140625
[R_Leg03]
24 1686.963989 0.000954 0.001431 0.104460 -0.063128 139.126434 1686.963989
25 1686.963989 0.000954 0.001431 0.108898 -0.061748 139.490402 1686.963989
26 1686.963989 0.000954 0.001431 0.108890 -0.061763 139.506226 1686.963989
[R_Foot]
24 3041.560059 -30.531288 -11.204481 4.355244 6.632969 51.528732 3041.734131
25 3041.560059 -30.531288 -11.204481 4.422729 6.190675 51.697384 3041.734131
26 3041.560059 -30.531288 -11.204481 4.419578 5.890087 51.617397 3041.734131
[planeAlignerRight]
24 -0.635147 -812.270569 -0.364304 0.000000 -89.960434 -90.005180 812.270874
25 -0.635147 -812.270569 -0.364304 0.000000 -89.960434 -90.005180 812.270874
26 -0.635147 -812.270569 -0.364304 0.000000 -89.960434 -90.005180 812.270874
[R_Toe1_01]
24 -188.383347 -224.864899 21.052242 77.501564 2.584301 -171.438126 294.101532
25 -188.383347 -224.864899 21.052242 77.501541 2.584381 -171.438232 294.101532
26 -188.383347 -224.864899 21.052242 77.501541 2.584463 -171.438324 294.101532
[R_Toe2_01]
24 200.637817 -220.002121 -148.787384 -87.001434 41.725632 -47.415604 332.857574
25 200.637817 -220.002121 -148.787384 -87.001404 41.726021 -47.415428 332.857574
26 200.637817 -220.002121 -148.787384 -87.001404 41.726418 -47.415276 332.857574
[R_Toe3_01]
24 188.606735 -220.092957 191.126343 -74.774231 -14.746103 -63.949142 347.192566
25 188.606735 -220.092957 191.126343 -74.774231 -14.746103 -63.949142 347.192566
26 188.606735 -220.092957 191.126343 -74.774231 -14.746103 -63.949142 347.192566
[planeLockWeightRight]
24 -0.000477 0.000000 0.000000 -0.011823 -0.004379 -0.000027 0.000477
25 -0.000477 0.000000 0.000000 -0.011823 -0.004379 -0.000027 0.000477
26 -0.000477 0.000000 0.000000 -0.011823 -0.004379 -0.000027 0.000477
[R_Toe1_02]
24 413.762085 0.000477 -0.000119 0.001417 -21.804331 0.001417 413.762085
25 413.762085 0.000477 -0.000119 0.001417 -21.803299 0.001417 413.762085
26 413.762085 0.000477 -0.000119 0.001417 -21.802269 0.001417 413.762085
[R_Toe1_03]
24 464.317810 0.000000 0.001088 0.000899 28.908398 -0.003161 464.317810
25 464.317810 0.000000 0.001088 0.000899 28.908581 -0.003161 464.317810
26 464.317810 0.000000 0.001088 0.000899 28.908758 -0.003161 464.317810
[R_Toe2_02]
24 342.234741 -0.000954 0.000238 -0.002334 -78.750763 -0.002334 342.234741
25 342.234741 -0.000954 0.000238 -0.002334 -78.747940 -0.002334 342.234741
26 342.234741 -0.000954 0.000238 -0.002334 -78.745132 -0.002334 342.234741
[R_Toe2_03]
24 420.210846 0.000715 -0.000268 -179.994690 71.300629 -179.998230 420.210846
25 420.210846 0.000715 -0.000268 -179.994690 71.300629 -179.998230 420.210846
26 420.210846 0.000715 -0.000268 -179.994690 71.300629 -179.998230 420.210846
[R_Toe3_02]
24 329.270355 -0.000477 -0.000954 0.001175 -84.048332 0.001175 329.270355
25 329.270355 -0.000477 -0.000954 0.001175 -84.048988 0.001175 329.270355
26 329.270355 -0.000477 -0.000954 0.001175 -84.049583 0.001175 329.270355
[R_Toe3_03]
24 439.137939 0.000238 0.001431 -179.995331 57.503021 -179.988052 439.137939
25 439.137939 0.000238 0.001431 -179.995331 57.502865 -179.988052 439.137939
26 439.137939 0.000238 0.001431 -179.995331 57.502720 -179.988052 439.137939
[Rear_Leg02]
24 1162.777710 -0.029802 0.005960 5.888815 17.515509 -76.692139 1162.777710
25 1162.777710 -0.029802 0.005960 5.760345 17.414478 -76.995560 1162.777710
26 1162.777710 -0.029802 0.005960 5.762022 17.318747 -76.911278 1162.777710
[Rear_Leg03]
24 607.192505 -0.013351 -0.073195 0.006660 -0.001421 52.293324 607.192505
25 607.192505 -0.013351 -0.073195 0.007750 0.000796 52.334656 607.192505
26 607.192505 -0.013351 -0.073195 0.008842 0.003012 52.375984 607.192505
[Rear_Leg04]
24 995.874512 -0.020504 -0.011921 -0.033901 -0.012951 37.111553 995.874573
25 995.874512 -0.020504 -0.011921 -0.033923 -0.012892 37.309856 995.874573
26 995.874512 -0.020504 -0.011921 -0.033915 -0.012913 37.236786 995.874573
[Rear_Foot]
24 3096.176270 -0.067472 -0.041425 31.405298 66.270767 -118.054047 3096.176270
25 3096.176270 -0.067472 -0.041425 31.154137 66.384117 -118.298164 3096.176270
26 3096.176270 -0.067472 -0.041425 31.252478 66.451584 -118.279907 3096.176270
[planeAlignerCenter]
24 0.350077 0.966311 -838.790894 0.000009 0.000003 -179.999985 838.791565
25 0.350077 0.966311 -838.790894 0.000009 0.000003 -179.999985 838.791565
26 0.350077 0.966311 -838.790894 0.000009 0.000003 -179.999985 838.791565
[Rear_Toe1_01]
24 0.653352 83.966492 -371.173737 -30.751728 22.815676 86.597397 380.553192
25 0.653352 83.966492 -371.173737 -30.751724 22.815372 86.597267 380.553192
26 0.653352 83.966492 -371.173737 -30.751724 22.815075 86.597145 380.553192
[Rear_Toe2_01]
24 178.200760 -294.826019 -362.060547 -8.136108 -0.230487 -62.257530 499.765686
25 178.200760 -294.826019 -362.060547 -8.136169 -0.230730 -62.257511 499.765686
26 178.200760 -294.826019 -362.060547 -8.136229 -0.230971 -62.257488 499.765686
[Rear_Toe3_01]
24 -153.359680 -308.780914 -362.060852 3.734133 13.519382 -102.730553 499.952881
25 -153.359680 -308.780914 -362.060852 3.734156 13.519133 -102.730591 499.952881
26 -153.359680 -308.780914 -362.060852 3.734181 13.518883 -102.730606 499.952881
[planeLockWeightCenter]
24 -0.000062 0.000238 0.000000 -0.011814 -0.004373 -0.000015 0.000246
25 -0.000062 0.000238 0.000000 -0.011814 -0.004373 -0.000015 0.000246
26 -0.000062 0.000238 0.000000 -0.011814 -0.004373 -0.000015 0.000246
[Rear_Toe1_02]
24 379.707825 0.194073 0.000477 -0.006719 -30.027821 -0.006719 379.707855
25 379.707825 0.194073 0.000477 -0.006719 -30.027636 -0.006719 379.707855
26 379.707825 0.194073 0.000477 -0.006719 -30.027452 -0.006719 379.707855
[Rear_Toe1_03]
24 500.129700 0.165701 0.000119 -179.994797 70.678665 -179.998352 500.129761
25 500.129700 0.165701 0.000119 -179.994797 70.678444 -179.998352 500.129761
26 500.129700 0.165701 0.000119 -179.994797 70.678223 -179.998352 500.129761
[Rear_Toe2_02]
24 340.494507 0.000238 -0.000954 0.001661 0.062883 0.001661 340.494507
25 340.494507 0.000238 -0.000954 0.001661 0.063053 0.001661 340.494507
26 340.494507 0.000238 -0.000954 0.001661 0.063224 0.001661 340.494507
[Rear_Toe2_03]
24 433.103577 0.000000 0.000238 -0.003297 -0.804494 0.001683 433.103546
25 433.103577 0.000000 0.000238 -0.003297 -0.804494 0.001683 433.103546
26 433.103577 0.000000 0.000238 -0.003297 -0.804493 0.001683 433.103546
[Rear_Toe3_02]
24 340.494141 -0.000358 -0.000477 -0.002600 -36.670116 -0.002600 340.494171
25 340.494141 -0.000358 -0.000477 -0.002600 -36.670113 -0.002600 340.494171
26 340.494141 -0.000358 -0.000477 -0.002600 -36.670113 -0.002600 340.494171
[Rear_Toe3_03]
24 433.103577 0.001431 -0.000238 0.006396 30.730234 -0.001649 433.103546
25 433.103577 0.001431 -0.000238 0.006396 30.730234 -0.001649 433.103546
26 433.103577 0.001431 -0.000238 0.006396 30.730234 -0.001649 433.103546
[Back_Bone]
24 1312.175781 -701.934692 0.000954 16.481186 -24.772202 -86.659973 1488.125488
25 1312.175781 -701.934692 0.000954 16.343433 -25.015856 -87.883095 1488.125488
26 1312.175781 -701.934692 0.000954 16.204353 -25.249176 -89.344818 1488.125488
[Head]
24 1406.159424 809.709290 0.001431 -0.814089 -1.360235 41.189713 1622.625488
25 1406.159424 809.709290 0.001431 -0.829162 -1.350955 41.861614 1622.625488
26 1406.159424 809.709290 0.001431 -0.844125 -1.341498 42.533485 1622.625488
[Motor_Bone]
24 1158.364380 -417.834747 0.000477 -6.514530 -16.466036 -115.249908 1231.419434
25 1158.364380 -417.834747 0.000477 -5.582651 -16.527096 -115.977310 1231.419434
26 1158.364380 -417.834747 0.000477 -5.611535 -18.590818 -115.796471 1231.419434
[Ping_Mechanism]
24 1208.239624 -591.211121 23.411276 0.000103 -0.000053 82.120995 1345.333374
25 1209.021362 -590.381836 24.869617 0.000103 -0.000053 82.120995 1345.697510
26 1209.802979 -589.552551 26.327961 0.000103 -0.000053 82.120995 1346.064209
[BN_LookIK]
24 193.241119 1380.371704 -0.002861 0.000000 89.965736 -31.038179 1393.832153
25 193.241119 1380.371704 -0.002861 0.000000 89.965736 -31.038179 1393.832153
26 193.241119 1380.371704 -0.002861 0.000000 89.965736 -31.038179 1393.832153
[bottomMouth]
24 -435.092926 615.759399 -0.000954 -0.000022 0.000016 73.527184 753.966492
25 -435.092926 615.759399 -0.000954 -0.000022 0.000016 73.527184 753.966492
26 -435.092926 615.759399 -0.000954 -0.000022 0.000016 73.527184 753.966492
[L_Mouth01]
24 554.440979 7.658243 838.222046 150.204178 23.759130 109.605339 1005.027161
25 554.440979 7.658243 838.222046 150.204178 23.759130 109.605339 1005.027161
26 554.440979 7.658243 838.222046 150.204178 23.759130 109.605339 1005.027161
[L_mouthFront]
24 551.629089 934.514771 339.150421 0.000081 2.804060 79.119301 1136.941284
25 551.629089 934.514771 339.150421 0.000081 2.804060 79.119301 1136.941284
26 551.629089 934.514771 339.150421 0.000081 2.804060 79.119301 1136.941284
[mouthGun]
24 55.332661 1627.420898 0.000000 0.000023 0.000009 -11.038128 1628.361328
25 55.332661 1627.420898 0.000000 0.000023 0.000009 -11.038128 1628.361328
26 55.332661 1627.420898 0.000000 0.000023 0.000009 -11.038128 1628.361328
[R_Mouth01]
24 554.442383 7.659197 -838.223938 29.795891 -23.759109 109.605331 1005.029541
25 554.442383 7.659197 -838.223938 29.795891 -23.759109 109.605331 1005.029541
26 554.442383 7.659197 -838.223938 29.795891 -23.759109 109.605331 1005.029541
[R_mouthFront]
24 551.629089 934.514282 -339.151367 0.000029 -2.803930 79.119133 1136.941162
25 551.629089 934.514282 -339.151367 0.000029 -2.803930 79.119133 1136.941162
26 551.629089 934.514282 -339.151367 0.000029 -2.803930 79.119133 1136.941162
[TopMouth]
24 461.269867 -56.106091 -0.008583 -0.000059 -0.000268 92.025169 464.669525
25 461.269867 -56.106091 -0.008583 -0.000059 -0.000268 92.025169 464.669525
26 461.269867 -56.106091 -0.008583 -0.000059 -0.000268 92.025169 464.669525
[weapon_bone]
24 -987.239868 1448.372803 0.001431 0.000000 89.965736 -31.038221 1752.833740
25 -987.239868 1448.372803 0.001431 0.000000 89.965736 -31.038221 1752.833740
26 -987.239868 1448.372803 0.001431 0.000000 89.965736 -31.038221 1752.833740
